<svg xmlns="http://www.w3.org/2000/svg" xmlns:xlink="http://www.w3.org/1999/xlink" width="1587" zoomAndPan="magnify" viewBox="0 0 1190.25 1683.749945" height="2245" preserveAspectRatio="xMidYMid meet" version="1.0"><defs><clipPath id="85a11a3728"><path d="M 5.503906 0.40625 L 1185 0.40625 L 1185 1683 L 5.503906 1683 Z M 5.503906 0.40625 " clip-rule="nonzero"/></clipPath><clipPath id="358f1f6d2e"><path d="M 984.082031 1478.605469 C 997.035156 1531.210938 970.214844 1585.484375 920.539062 1607.097656 C 834.203125 1644.667969 706.660156 1684.324219 549.800781 1683.097656 C 399.5 1681.917969 277.136719 1643.632812 193.117188 1607.027344 C 143.523438 1585.425781 116.832031 1531.148438 129.769531 1478.625 L 273.785156 893.832031 L 309.066406 893.832031 L 309.066406 839.675781 L 804.789062 839.675781 L 804.789062 893.832031 L 840.070312 893.832031 Z M 1179.765625 498.046875 L 1067.285156 241.359375 C 1054.667969 212.570312 1026.214844 193.972656 994.78125 193.972656 L 943.082031 193.972656 C 915.007812 162.761719 789.667969 138.082031 630.089844 132.214844 L 630.089844 55.683594 C 630.089844 25.152344 605.339844 0.40625 574.8125 0.40625 L 539.042969 0.40625 C 508.515625 0.40625 483.765625 25.152344 483.765625 55.683594 L 483.765625 132.214844 C 302.160156 138.894531 164.761719 169.929688 164.761719 207.230469 L 41.980469 207.230469 C 21.835938 207.226562 5.503906 223.5625 5.503906 243.710938 L 5.503906 275.402344 L 195.027344 414.988281 L 237.6875 707.847656 C 241.816406 736.191406 266.121094 757.210938 294.761719 757.210938 L 309.066406 757.210938 L 309.066406 811.363281 L 804.789062 811.363281 L 804.789062 757.210938 L 819.09375 757.210938 C 847.738281 757.210938 872.039062 736.191406 876.167969 707.847656 L 936.179688 295.886719 L 979.90625 295.886719 L 1076.394531 516.078125 L 997.917969 644.964844 C 983.28125 669.003906 990.902344 700.355469 1014.9375 714.992188 C 1038.980469 729.628906 1070.328125 722.003906 1084.964844 697.96875 L 1176.433594 547.742188 C 1185.585938 532.714844 1186.824219 514.164062 1179.765625 498.046875 Z M 1179.765625 498.046875 " clip-rule="nonzero"/></clipPath></defs><g clip-path="url(#85a11a3728)"><g clip-path="url(#358f1f6d2e)"><path fill="#deb389" d="M 5.503906 0.40625 L 1184.296875 0.40625 L 1184.296875 1682.960938 L 5.503906 1682.960938 Z M 5.503906 0.40625 " fill-opacity="1" fill-rule="nonzero"/></g></g></svg>